<svg width="24" height="27" viewBox="0 0 24 27" fill="none" xmlns="http://www.w3.org/2000/svg">
<path d="M23.1665 5.47299C23.1607 5.43625 23.1579 5.39974 23.1466 5.36626C23.1352 5.31952 23.1181 5.27953 23.0951 5.23628C23.0808 5.20628 23.0637 5.17629 23.0437 5.14955C23.018 5.11281 22.9895 5.08282 22.958 5.05282C22.9323 5.02957 22.9066 5.00957 22.8781 4.98957C22.8438 4.96632 22.8067 4.95284 22.7667 4.93958C22.7467 4.93284 22.7296 4.91633 22.7067 4.91284C22.6923 4.90959 22.6782 4.9161 22.661 4.9161C22.6439 4.9161 22.6325 4.9061 22.6154 4.9061L5.57263 4.90633L5.05536 1.31292C5.04958 1.28292 5.03543 1.25619 5.02686 1.22968C5.01828 1.19643 5.00971 1.16294 4.99536 1.13295C4.97543 1.0897 4.95251 1.04971 4.92679 1.01297C4.90686 0.986228 4.88972 0.962976 4.86679 0.939722C4.8353 0.906471 4.80101 0.882986 4.76394 0.85973C4.73823 0.842989 4.71252 0.829735 4.68401 0.816481C4.64395 0.799739 4.60408 0.793229 4.56123 0.786485C4.5413 0.78323 4.52415 0.773232 4.50402 0.773232L0.880443 0.772766C0.571884 0.772766 0.320312 1.06621 0.320312 1.42618C0.320312 1.78616 0.568873 2.0796 0.880443 2.0796H4.03242L6.107 16.4932C5.19825 16.7532 4.54689 17.69 4.54689 18.8066V18.9198C4.59253 20.2099 5.49569 21.22 6.60156 21.22L20.4663 21.2C20.7749 21.2 21.0264 20.9065 21.0236 20.5466C21.0236 20.1866 20.7721 19.8964 20.4635 19.8964L6.59876 19.9164C6.09306 19.9164 5.68143 19.4565 5.66153 18.8931V18.8099C5.66153 18.2432 6.03009 17.7798 6.51584 17.7266L10.7336 17.2866C10.7479 17.2866 10.7621 17.2866 10.7764 17.2834L21.2351 16.1965C21.255 16.1933 21.2721 16.1833 21.2923 16.1765C21.3351 16.1665 21.378 16.1533 21.4151 16.1333C21.4408 16.12 21.4637 16.1033 21.4864 16.0833C21.5207 16.0566 21.5492 16.0301 21.5779 15.9966C21.5978 15.9733 21.615 15.9498 21.6321 15.9198C21.6551 15.8831 21.6722 15.8431 21.6893 15.7999C21.7007 15.7666 21.7123 15.7366 21.7208 15.6999C21.7236 15.6831 21.7322 15.6699 21.7352 15.6499L23.1697 5.67272C23.1725 5.65597 23.1669 5.64272 23.1697 5.62598C23.1721 5.59947 23.1807 5.58273 23.1807 5.55948C23.1807 5.52948 23.1693 5.50274 23.1663 5.47275L23.1665 5.47299ZM6.03294 8.11309L5.75866 6.20963H8.61621L8.89049 8.11309H6.03294ZM6.2215 9.41642H9.07905L9.40475 11.6798H6.5472L6.2215 9.41642ZM7.21593 16.3369L6.73296 12.9835H9.59051L10.0306 16.0435L7.21593 16.3369ZM13.3025 15.7035L11.148 15.927L10.725 12.9835H13.3025L13.3025 15.7035ZM13.3025 11.6801H10.5365L10.2108 9.41677H13.3027L13.3025 11.6801ZM13.3025 8.11321H10.025L9.75073 6.21326H13.3027L13.3025 8.11321ZM16.6516 15.3534L14.42 15.5868V12.9835H16.9917L16.6516 15.3534ZM17.1802 11.68H14.4197V9.41659H17.5059L17.1802 11.68ZM14.4199 8.11303V6.20957H17.9661L17.6919 8.11303H14.4199ZM20.7065 14.9329L17.8003 15.2331L18.1233 12.983H20.9836L20.7065 14.9329ZM21.1751 11.6797H18.3118L18.6375 9.41636H21.4979L21.1751 11.6797ZM21.6866 8.11279H18.8262L19.1005 6.20933H21.9609L21.6866 8.11279Z" fill="#6C758D"/>
<path d="M9.14728 21.9469C8.13571 21.9469 7.31268 22.907 7.31268 24.0871C7.31268 25.2671 8.13571 26.2272 9.14728 26.2272C10.1589 26.2272 10.9819 25.2671 10.9819 24.0871C10.9819 22.907 10.1589 21.9469 9.14728 21.9469ZM9.14728 24.9272C8.75002 24.9272 8.43009 24.5505 8.43009 24.0905C8.43009 23.6271 8.753 23.2539 9.14728 23.2539C9.54157 23.2539 9.86448 23.6306 9.86448 24.0905C9.86448 24.5505 9.54456 24.9272 9.14728 24.9272Z" fill="#6C758D"/>
<path d="M17.1399 21.9469C16.1283 21.9469 15.3053 22.907 15.3053 24.0871C15.3053 25.2671 16.1283 26.2272 17.1399 26.2272C18.1515 26.2272 18.9745 25.2671 18.9745 24.0871C18.9743 22.907 18.1515 21.9469 17.1399 21.9469ZM17.1399 24.9272C16.7426 24.9272 16.4227 24.5505 16.4227 24.0905C16.4227 23.6271 16.7456 23.2539 17.1399 23.2539C17.5372 23.2539 17.8571 23.6306 17.8571 24.0905C17.8571 24.5505 17.5342 24.9272 17.1399 24.9272Z" fill="#6C758D"/>
</svg>
