<svg width="22" height="27" viewBox="0 0 22 27" fill="none" xmlns="http://www.w3.org/2000/svg">
<path d="M21.4571 26.2271C21.7574 26.2271 22.001 25.9518 22.001 25.6129C22.001 20.5251 19.2538 15.9435 15.2085 14.0843C16.6795 12.7031 17.618 10.6217 17.618 8.29725C17.618 4.14826 14.6289 0.772766 10.9547 0.772766C7.28077 0.772766 4.29141 4.14842 4.29141 8.29725C4.29141 10.6225 5.23049 12.7044 6.70263 14.0859C2.76289 15.9131 0.180664 20.4022 0.180664 25.6129C0.180664 25.952 0.424443 26.2271 0.724558 26.2271C1.02487 26.2271 1.26845 25.9518 1.26845 25.6129C1.26845 20.6037 3.89404 16.3395 7.81859 14.9344C8.75407 15.5001 9.82137 15.8222 10.9547 15.8222C12.0881 15.8222 13.1555 15.5004 14.0908 14.9342C18.1158 16.3719 20.9129 20.7333 20.9129 25.6127C20.9129 25.9523 21.1565 26.2271 21.457 26.2271L21.4571 26.2271ZM5.3792 8.29775C5.3792 4.8259 7.88037 2.00175 10.9546 2.00175C14.0291 2.00175 16.53 4.82595 16.53 8.29775C16.53 11.7694 14.0291 14.5937 10.9546 14.5937C7.88032 14.5937 5.3792 11.7695 5.3792 8.29775Z" fill="#6C758D"/>
</svg>
