<svg width="23" height="27" viewBox="0 0 23 27" fill="none" xmlns="http://www.w3.org/2000/svg">
<path d="M8.75581 0.772766C4.20679 0.772766 0.5 5.09691 0.5 10.4035C0.5 15.7102 4.20679 20.0343 8.75581 20.0343C10.7128 20.0343 12.5079 19.2296 13.925 17.8954L20.8081 25.9249C21.1534 26.3278 21.7157 26.328 22.0613 25.9249C22.4066 25.5221 22.4068 24.8661 22.0613 24.463L15.1876 16.4446C16.3299 14.792 17.0119 12.6849 17.0119 10.4037C17.0119 5.09709 13.3051 0.77295 8.75607 0.77295L8.75581 0.772766ZM8.75581 2.83662C12.3487 2.83662 15.2425 6.21237 15.2425 10.4037C15.2425 14.5949 12.3487 17.9707 8.75581 17.9707C5.16295 17.9707 2.2691 14.5949 2.2691 10.4037C2.2691 6.21218 5.1629 2.83662 8.75581 2.83662Z" fill="#6C758D"/>
</svg>
